<?xml version="1.0" encoding="UTF-8" standalone="no"?>
<svg width="111px" height="110px" viewBox="0 0 111 110" version="1.1" xmlns="http://www.w3.org/2000/svg" xmlns:xlink="http://www.w3.org/1999/xlink" xmlns:sketch="http://www.bohemiancoding.com/sketch/ns">
    <!-- Generator: Sketch 3.2.2 (9983) - http://www.bohemiancoding.com/sketch -->
    <title>book</title>
    <desc>Created with Sketch.</desc>
    <defs>
        <path id="path-1" d="M2.11840773,0.273071088 L0.343250919,40.3394195 L22.4063282,39.1824205 L22.4063282,5.19681233 L2.11840773,0.273071088 Z"></path>
        <path id="path-3" d="M2.11840773,0.273071088 L0.343250919,40.3394195 L22.4063282,39.1824205 L22.4063282,5.19681233 L2.11840773,0.273071088 Z"></path>
    </defs>
    <g id="Indie-author-award" stroke="none" stroke-width="1" fill="none" fill-rule="evenodd" sketch:type="MSPage">
        <g id="Mobile-Portrait" sketch:type="MSArtboardGroup" transform="translate(-199.000000, -598.000000)">
            <g id="book" sketch:type="MSLayerGroup" transform="translate(204.500000, 603.000000)">
                <ellipse id="Oval-7" stroke="#FFFFFF" stroke-width="5" fill="#F5F5F5" sketch:type="MSShapeGroup" cx="50" cy="50" rx="50" ry="50"></ellipse>
                <path d="M21.6619718,33.6952381 L19.0725819,64.8041911 C19.032496,65.2857831 19.3825765,65.7938585 19.8396299,65.9344331 L45.6382792,73.8692528 C45.873056,73.9414625 46.1948773,73.850593 46.3709964,73.6785863 C46.3709964,73.6785863 47.3943662,72.247619 50.5,72.247619 L50.5,40.7017197 L22.9929577,32.8190476 C22.9929577,32.8190476 21.6619718,32.3809524 21.6619718,33.6952381 Z M79.3380282,33.6952381 L81.9274181,64.8041911 C81.967504,65.2857831 81.6174235,65.7938585 81.1603701,65.9344331 L55.3617208,73.8692528 C55.126944,73.9414625 54.8051227,73.850593 54.6290036,73.6785863 C54.6290036,73.6785863 53.6056338,72.247619 50.5,72.247619 L50.5,40.7017197 L78.0070423,32.8190476 C78.0070423,32.8190476 79.3380282,32.3809524 79.3380282,33.6952381 Z" id="Path-36" fill="#686868" sketch:type="MSShapeGroup"></path>
                <g id="Path-38-+-Path-40-+-Path-39" transform="translate(20.774648, 28.876190)" sketch:type="MSShapeGroup">
                    <path d="M1.77464789,4.81904762 L0,35.9238095 L4.43661972,30.2285714 L5.76760563,0 L1.77464789,4.81904762 Z" id="Path-38" fill="#F4F1EC"></path>
                    <path d="M5.76760563,0 L4.43661972,30.2285714 L29.7253521,38.1142857 L29.7253521,8.32380952 C20.8521127,0 5.76760563,0 5.76760563,0 Z" id="Path-40" fill="#FFFFFF"></path>
                    <path d="M4.43661972,30.2285714 C4.43661972,30.2285714 22.1830986,30.6666667 29.7253521,38.1142857 L29.7253521,40.3047619 C29.7253521,40.3047619 26.6197183,40.3047619 24.8450704,43.3714286 L0,35.9238095 L4.43661972,30.2285714 Z" id="Path-39" fill="#EBE9E5"></path>
                </g>
                <g id="Path-38-+-Path-40-+-Path-40" transform="translate(65.140845, 50.780952) scale(-1, 1) translate(-65.140845, -50.780952) translate(50.056338, 28.876190)" sketch:type="MSShapeGroup">
                    <path d="M1.77464789,4.81904762 L0,35.9238095 L4.43661972,30.2285714 L5.76760563,0 L1.77464789,4.81904762 Z" id="Path-38" fill="#F4F1EC"></path>
                    <path d="M5.76760563,0 L4.43661972,30.2285714 L29.7253521,38.1142857 L29.7253521,8.32380952 C20.8521127,0 5.76760563,0 5.76760563,0 Z" id="Path-40" fill="#FFFFFF"></path>
                    <path d="M4.43661972,30.2285714 C4.43661972,30.2285714 22.1830986,30.6666667 29.7253521,38.1142857 L29.7253521,40.3047619 C29.7253521,40.3047619 26.6197183,40.3047619 24.8450704,43.3714286 L0,35.9238095 L4.43661972,30.2285714 Z" id="Path-39" fill="#EBE9E5"></path>
                </g>
                <g id="Path-61-+-Group" transform="translate(26.985915, 28.000000)">
                    <mask id="mask-2" sketch:name="Path 61" fill="white">
                        <use xlink:href="#path-1"></use>
                    </mask>
                    <use id="Path-61" sketch:type="MSShapeGroup" xlink:href="#path-1"></use>
                    <g id="Group" mask="url(#mask-2)" stroke="#EDEDED" stroke-width="0.572" sketch:type="MSShapeGroup">
                        <g transform="translate(-1.774648, 2.628571)">
                            <path d="M1.27264085,0.384895498 C1.27264085,0.384895498 16.1263081,0.384895498 25.2888446,8.83911298" id="Path-45"></path>
                            <path d="M1.26608212,1.6764262 C1.26608212,1.6764262 15.4698711,1.72916888 25.3039174,10.1748192" id="Path-45"></path>
                            <path d="M1.23810354,2.95524556 C1.23810354,2.95524556 15.4416824,3.42282041 25.264493,11.4710104" id="Path-46"></path>
                            <path d="M1.20758146,4.50866573 C1.20758146,4.50866573 15.4327777,5.26046851 25.2475363,12.826224" id="Path-47"></path>
                            <path d="M1.08531039,6.10923637 C1.08531039,6.10923637 14.9117411,6.81065015 25.1969622,14.268996" id="Path-48"></path>
                            <path d="M0.863444694,7.7044038 C0.863444694,7.7044038 16.5485363,9.08592632 25.344333,16.11683" id="Path-49"></path>
                            <path d="M0.869750453,9.35566001 C0.869750453,9.35566001 16.9770779,11.2504736 25.2514437,17.5927818" id="Path-50"></path>
                            <path d="M0.931837905,10.976262 C0.931837905,10.976262 17.199477,12.9702228 25.2334966,19.5304638" id="Path-52"></path>
                            <path d="M0.662873121,12.7276234 C0.662873121,12.7276234 17.1847594,14.7407743 25.2738322,21.0165057" id="Path-53"></path>
                            <path d="M0.727722151,14.4901991 C0.727722151,14.4901991 17.9896379,16.7469175 25.2291316,22.7424503" id="Path-54"></path>
                            <path d="M0.659896759,16.0038834 C0.659896759,16.0038834 17.0188759,17.9517531 25.3390357,24.7244585" id="Path-55"></path>
                            <path d="M0.578753383,17.8744646 C0.578753383,17.8744646 16.0028129,18.9338672 25.2126485,26.3681722" id="Path-56"></path>
                            <path d="M0.323586086,19.6028875 C0.323586086,19.6028875 16.0793206,20.7012037 25.2612307,28.3045612" id="Path-57"></path>
                            <path d="M0.468284606,21.4619024 C0.468284606,21.4619024 17.8325704,22.8307124 25.2587186,30.2838788" id="Path-58"></path>
                            <path d="M0.347313533,23.3762268 C0.347313533,23.3762268 16.7360051,24.2447463 25.1209632,31.7842456" id="Path-59"></path>
                            <path d="M0.191529228,25.4570559 C0.191529228,25.4570559 15.8269616,25.7434231 25.1429312,33.3779014" id="Path-60"></path>
                        </g>
                    </g>
                </g>
                <g id="Path-61-+-Group-2" transform="translate(62.700704, 48.371429) scale(-1, 1) translate(-62.700704, -48.371429) translate(51.387324, 28.000000)">
                    <mask id="mask-4" sketch:name="Path 61" fill="white">
                        <use xlink:href="#path-3"></use>
                    </mask>
                    <use id="Path-61" sketch:type="MSShapeGroup" xlink:href="#path-3"></use>
                    <g id="Group" mask="url(#mask-4)" stroke="#EDEDED" stroke-width="0.572" sketch:type="MSShapeGroup">
                        <g transform="translate(-1.774648, 2.628571)">
                            <path d="M1.27264085,0.384895498 C1.27264085,0.384895498 16.1263081,0.384895498 25.2888446,8.83911298" id="Path-45"></path>
                            <path d="M1.26608212,1.6764262 C1.26608212,1.6764262 15.4698711,1.72916888 25.3039174,10.1748192" id="Path-45"></path>
                            <path d="M1.23810354,2.95524556 C1.23810354,2.95524556 15.4416824,3.42282041 25.264493,11.4710104" id="Path-46"></path>
                            <path d="M1.20758146,4.50866573 C1.20758146,4.50866573 15.4327777,5.26046851 25.2475363,12.826224" id="Path-47"></path>
                            <path d="M1.08531039,6.10923637 C1.08531039,6.10923637 14.9117411,6.81065015 25.1969622,14.268996" id="Path-48"></path>
                            <path d="M0.863444694,7.7044038 C0.863444694,7.7044038 16.5485363,9.08592632 25.344333,16.11683" id="Path-49"></path>
                            <path d="M0.869750453,9.35566001 C0.869750453,9.35566001 16.9770779,11.2504736 25.2514437,17.5927818" id="Path-50"></path>
                            <path d="M0.931837905,10.976262 C0.931837905,10.976262 17.199477,12.9702228 25.2334966,19.5304638" id="Path-52"></path>
                            <path d="M0.662873121,12.7276234 C0.662873121,12.7276234 17.1847594,14.7407743 25.2738322,21.0165057" id="Path-53"></path>
                            <path d="M0.727722151,14.4901991 C0.727722151,14.4901991 17.9896379,16.7469175 25.2291316,22.7424503" id="Path-54"></path>
                            <path d="M0.659896759,16.0038834 C0.659896759,16.0038834 17.0188759,17.9517531 25.3390357,24.7244585" id="Path-55"></path>
                            <path d="M0.578753383,17.8744646 C0.578753383,17.8744646 16.0028129,18.9338672 25.2126485,26.3681722" id="Path-56"></path>
                            <path d="M0.323586086,19.6028875 C0.323586086,19.6028875 16.0793206,20.7012037 25.2612307,28.3045612" id="Path-57"></path>
                            <path d="M0.468284606,21.4619024 C0.468284606,21.4619024 17.8325704,22.8307124 25.2587186,30.2838788" id="Path-58"></path>
                            <path d="M0.347313533,23.3762268 C0.347313533,23.3762268 16.7360051,24.2447463 25.1209632,31.7842456" id="Path-59"></path>
                            <path d="M0.191529228,25.4570559 C0.191529228,25.4570559 15.8269616,25.7434231 25.1429312,33.3779014" id="Path-60"></path>
                        </g>
                    </g>
                </g>
                <g id="Group" transform="translate(20.774648, 59.104762)" stroke="#E1DED9" stroke-width="0.5" sketch:type="MSShapeGroup">
                    <path d="M29.6368406,8.81517638 C29.6368406,8.81517638 25.0818824,3.87409309 3.96217861,0.597905901" id="Path-78"></path>
                    <path d="M29.6368406,8.37708114 C29.6368406,8.37708114 24.2602795,2.41331007 4.21968145,0.131198812" id="Path-89"></path>
                    <path d="M29.6368406,9.25327162 C29.6368406,9.25327162 25.6599602,4.92633427 3.66338156,1.01277537" id="Path-83"></path>
                    <path d="M29.650954,9.84555269 C29.650954,9.84555269 25.4499472,5.77110098 3.44810472,1.30015044" id="Path-79"></path>
                    <path d="M29.1898129,10.1319404 C29.1898129,10.1319404 23.3681802,5.53335749 3.21872506,1.61519345" id="Path-84"></path>
                    <path d="M28.300937,10.300318 C28.300937,10.300318 21.9858062,5.71673097 2.8307248,1.89419896" id="Path-80"></path>
                    <path d="M27.4454358,10.690321 C27.4454358,10.690321 20.4038162,6.10654287 2.55565904,2.53316259" id="Path-81"></path>
                    <path d="M26.7127898,11.0288847 C26.7127898,11.0288847 16.7827089,5.94902395 2.10747776,3.23702136" id="Path-82"></path>
                    <path d="M26.2691278,11.4669799 C26.2691278,11.4669799 16.3691004,6.85359066 1.66381579,3.6751166" id="Path-85"></path>
                    <path d="M25.8254658,11.9050751 C25.8254658,11.9050751 15.8958964,7.94164989 1.13147257,4.22842924" id="Path-86"></path>
                    <path d="M25.3818039,12.3431704 C25.3818039,12.3431704 15.4522344,8.37974512 0.687810601,4.66652448" id="Path-87"></path>
                    <path d="M24.9381419,12.7812656 C24.9381419,12.7812656 15.0085724,8.81784036 0.244148629,5.10461971" id="Path-88"></path>
                </g>
                <g id="Group-2" transform="translate(65.362676, 65.676190) scale(-1, 1) translate(-65.362676, -65.676190) translate(50.500000, 59.104762)" stroke="#E1DED9" stroke-width="0.5" sketch:type="MSShapeGroup">
                    <path d="M29.6368406,8.81517638 C29.6368406,8.81517638 25.0818824,3.87409309 3.96217861,0.597905901" id="Path-78"></path>
                    <path d="M29.6368406,8.37708114 C29.6368406,8.37708114 24.2602795,2.41331007 4.21968145,0.131198812" id="Path-89"></path>
                    <path d="M29.6368406,9.25327162 C29.6368406,9.25327162 25.6599602,4.92633427 3.66338156,1.01277537" id="Path-83"></path>
                    <path d="M29.650954,9.84555269 C29.650954,9.84555269 25.4499472,5.77110098 3.44810472,1.30015044" id="Path-79"></path>
                    <path d="M29.1898129,10.1319404 C29.1898129,10.1319404 23.3681802,5.53335749 3.21872506,1.61519345" id="Path-84"></path>
                    <path d="M28.300937,10.300318 C28.300937,10.300318 21.9858062,5.71673097 2.8307248,1.89419896" id="Path-80"></path>
                    <path d="M27.4454358,10.690321 C27.4454358,10.690321 20.4038162,6.10654287 2.55565904,2.53316259" id="Path-81"></path>
                    <path d="M26.7127898,11.0288847 C26.7127898,11.0288847 16.7827089,5.94902395 2.10747776,3.23702136" id="Path-82"></path>
                    <path d="M26.2691278,11.4669799 C26.2691278,11.4669799 16.3691004,6.85359066 1.66381579,3.6751166" id="Path-85"></path>
                    <path d="M25.8254658,11.9050751 C25.8254658,11.9050751 15.8958964,7.94164989 1.13147257,4.22842924" id="Path-86"></path>
                    <path d="M25.3818039,12.3431704 C25.3818039,12.3431704 15.4522344,8.37974512 0.687810601,4.66652448" id="Path-87"></path>
                    <path d="M24.9381419,12.7812656 C24.9381419,12.7812656 15.0085724,8.81784036 0.244148629,5.10461971" id="Path-88"></path>
                </g>
            </g>
        </g>
    </g>
</svg>
