<?xml version="1.0" encoding="UTF-8" standalone="no"?>
<svg width="30px" height="21px" viewBox="0 0 30 21" version="1.1" xmlns="http://www.w3.org/2000/svg" xmlns:xlink="http://www.w3.org/1999/xlink" xmlns:sketch="http://www.bohemiancoding.com/sketch/ns">
    <!-- Generator: Sketch 3.2.2 (9983) - http://www.bohemiancoding.com/sketch -->
    <title>Rectangle 94</title>
    <desc>Created with Sketch.</desc>
    <defs></defs>
    <g id="Indie-author-award" stroke="none" stroke-width="1" fill="none" fill-rule="evenodd" sketch:type="MSPage">
        <g id="Mobile-Portrait" sketch:type="MSArtboardGroup" transform="translate(-15.000000, -14.000000)" fill="#FFFFFF">
            <path d="M15,15.5 C15,14.6715729 15.6686549,14 16.5082641,14 L43.4917359,14 C44.3247272,14 45,14.6657972 45,15.5 C45,16.3284271 44.3313451,17 43.4917359,17 L16.5082641,17 C15.6752728,17 15,16.3342028 15,15.5 Z M15,24.5 C15,23.6715729 15.6686549,23 16.5082641,23 L43.4917359,23 C44.3247272,23 45,23.6657972 45,24.5 C45,25.3284271 44.3313451,26 43.4917359,26 L16.5082641,26 C15.6752728,26 15,25.3342028 15,24.5 Z M15,33.5 C15,32.6715729 15.6686549,32 16.5082641,32 L43.4917359,32 C44.3247272,32 45,32.6657972 45,33.5 C45,34.3284271 44.3313451,35 43.4917359,35 L16.5082641,35 C15.6752728,35 15,34.3342028 15,33.5 Z" id="Rectangle-94" sketch:type="MSShapeGroup"></path>
        </g>
    </g>
</svg>
