<?xml version="1.0" encoding="UTF-8" standalone="no"?>
<svg width="47px" height="54px" viewBox="0 0 47 54" version="1.1" xmlns="http://www.w3.org/2000/svg" xmlns:xlink="http://www.w3.org/1999/xlink" xmlns:sketch="http://www.bohemiancoding.com/sketch/ns">
    <!-- Generator: Sketch 3.2.2 (9983) - http://www.bohemiancoding.com/sketch -->
    <title>Parrot</title>
    <desc>Created with Sketch.</desc>
    <defs>
        <path id="path-1" d="M0.016640625,0.0172971014 L70.9134688,0.0172971014 L70.9134688,76.9832609 L0.016640625,76.9832609"></path>
    </defs>
    <g id="Indie-author-award" stroke="none" stroke-width="1" fill="none" fill-rule="evenodd" sketch:type="MSPage">
        <g sketch:type="MSArtboardGroup" transform="translate(-488.000000, -98.000000)" id="Parrot">
            <g sketch:type="MSLayerGroup" transform="translate(477.000000, 85.000000)">
                <g id="Group-3">
                    <mask id="mask-2" sketch:name="Clip 2" fill="white">
                        <use xlink:href="#path-1"></use>
                    </mask>
                    <g id="Clip-2"></g>
                </g>
                <path d="M15.6421875,13.8812029 C13.4439609,13.8812029 12.3670352,14.8548623 11.8508984,15.6714529 C10.5260273,17.768308 11.7219336,20.5849457 11.9748711,21.1281304 L11.9818047,21.1429167 L25.631832,49.7453478 L25.7044961,49.8814928 C25.799625,50.0430254 28.0868789,53.8361123 32.0528945,53.8361123 C32.0933867,53.8361123 32.1336016,53.8358333 32.1743711,53.8349964 C35.988957,54.0520471 37.8543711,54.1460652 38.8594648,54.1965616 C40.0201484,54.2551486 40.0201484,54.2551486 40.6721836,54.3271268 L40.7978203,54.3410761 L40.895168,54.3516775 C42.2236445,54.496471 43.8768906,54.6766957 46.3319375,57.7318659 L46.3485781,57.7519529 C47.1756172,58.7498841 47.9316563,59.675 48.5989453,60.4907536 C52.3286641,65.0521667 53.7239805,66.758721 55.5231094,66.758721 C56.0725273,66.758721 56.5936563,66.5757065 57.0301953,66.2289275 C57.8405938,65.5858659 58.5589141,64.2871884 57.3765977,61.753442 C56.9744492,60.8908188 56.4694063,60.1244457 56.2960664,59.8697319 C55.2701719,58.0088986 36.4266055,23.8331739 34.0727891,19.6260725 C31.1579063,14.4157391 23.7159414,13.9356051 15.6940508,13.8812029 L15.6421875,13.8812029 L15.6421875,13.8812029 Z M15.6421875,15.6248623 L15.6824023,15.6248623 C23.6621367,15.6789855 30.1561406,16.1803225 32.562375,20.481442 C34.994957,24.8297101 54.8222617,60.7915 54.8222617,60.7915 C54.8222617,60.7915 57.0712422,63.9755616 55.9565977,64.8602246 C55.8259688,64.9640072 55.682582,65.0150616 55.5231094,65.0150616 C54.3224883,65.0150616 52.2063555,62.0974312 47.6801055,56.6354529 C44.7119727,52.9425217 42.4790781,52.7720616 40.9861367,52.6077391 C39.4931953,52.4434167 40.9106992,52.5856993 32.2007188,52.089942 C32.1510742,52.0916159 32.1019844,52.0924529 32.0528945,52.0924529 C29.0276289,52.0924529 27.1943867,48.990692 27.1943867,48.990692 L13.5443594,20.3882609 C13.5443594,20.3882609 11.3250547,15.6248623 15.6421875,15.6248623 L15.6421875,15.6248623 Z" id="Fill-4" fill="#EDEDED" sketch:type="MSShapeGroup"></path>
                <path d="M23.2525,19.0468986 C22.5363984,19.0468986 21.8233477,19.2276812 21.1896172,19.5697174 C19.0679375,20.7155109 18.2672461,23.3856812 19.4049102,25.5215942 C20.1670508,26.9527899 21.6433516,27.8413587 23.2572148,27.8413587 C23.9733164,27.8413587 24.6866445,27.6605761 25.3200977,27.3185399 C27.4420547,26.1727464 28.2427461,23.5028551 27.1048047,21.366663 C26.3426641,19.9357464 24.8666406,19.0468986 23.2525,19.0468986 L23.2525,19.0468986 Z M23.2525,20.790558 C24.192418,20.790558 25.1018281,21.2980326 25.576918,22.1905072 C26.2647305,23.4816522 25.782707,25.0897246 24.5002695,25.7824457 C24.1039453,25.9964275 23.677668,26.0976993 23.2572148,26.0976993 C22.3175742,26.0976993 21.4078867,25.5902246 20.9327969,24.698308 C20.2449844,23.4068841 20.7270078,21.7985326 22.0094453,21.1060906 C22.4060469,20.8921087 22.8320469,20.790558 23.2525,20.790558 L23.2525,20.790558 Z" id="Fill-5" fill="#EDEDED" sketch:type="MSShapeGroup"></path>
                <path d="M36.5314414,58.6653514 C36.5314414,58.6653514 39.200875,56.6775797 41.819832,58.3171775 C42.7797188,58.9181123 44.2623984,60.6199239 43.7423789,63.3732319" id="Stroke-6" stroke="#EDEDED" stroke-width="2.44140625" stroke-linecap="round" stroke-linejoin="round" sketch:type="MSShapeGroup"></path>
                <path d="M23.5573008,34.1037464 C23.5573008,34.1037464 29.7196016,45.4350217 39.1681484,49.4825435 C48.6166953,53.5303442 38.2221289,37.403308 37.7306758,36.4957681" id="Stroke-7" stroke="#EDEDED" stroke-width="1.5625" stroke-linecap="round" sketch:type="MSShapeGroup"></path>
            </g>
        </g>
    </g>
</svg>
